<svg version="1.1" id="Слой_1" xmlns="http://www.w3.org/2000/svg" x="0" y="0" viewBox="0 0 1039.8 767.7" xml:space="preserve">
    <style>
        .st0{fill:#0478a5}.st2{fill:#08c}.st3{fill:#fff}
    </style>
    <path class="st0" d="M515.3 287.5c-129.2 0-246.7 15.4-333.8 40.8v216.2c87.1 25.4 204.2 40.8 333.8 40.8 147.9 0 280.4-20.4 369.2-52.5V339.6c-88.7-31.7-221.2-52.1-369.2-52.1z"/>
    <path class="st0" d="M890.8 483.3c-3.8-10.4-4.6-23.8-1.3-36.7 5.8-22.9 22.1-35.4 36.3-28.3 3.8 1.7 6.7 4.6 9.2 8.3h.8s43.8 52.1 3.3 113.8c-.8 3.3-75 90-92.5 92.9-11.3 2.1 14.6-88.3 44.2-150zM172.8 473.3c5-9.6 7.1-22.5 4.2-35.8-5-24.2-23.3-40.4-40.8-36.7-4.2.8-8.1 2.8-11.3 5.8h-.8s-55.4 41.3-11.7 111.7c.8 3.8 82.5 106.7 102.5 113.8 12.5 4.6-11.6-90.8-42.1-158.8z"/>
    <path class="st2" d="M974.5 405.4c-.8-2.9-1.7-5.8-2.5-9.2l30-43.8c3-4.6 3.6-10.3 1.7-15.4-1.9-5-6.4-8.7-11.7-9.6l-50.8-8.8c-2.1-4.2-4.2-7.9-6.3-12.1l21.3-49.2c2.1-5 1.6-10.8-1.3-15.4-2.8-4.4-7.7-7.1-12.9-7.1l-51.7 2.1c-2.5-3.3-5.4-7.1-8.3-10.4l12.1-52.5c1.2-5.3-.3-10.8-4.2-14.6-3.7-3.8-9-5.3-14.2-4.2l-50.4 12.5c-3.3-2.9-6.7-5.8-10-8.3l1.7-53.8c0-5.4-2.5-10.8-6.7-13.8-4.3-2.9-9.8-3.4-14.6-1.3L749.4 113l-11.3-6.3-8.3-53.3c-.7-5.4-4.2-9.9-9.2-12.1-4.8-2-10.3-1.4-14.6 1.7l-42.1 31.3-12.5-3.8-17.9-50.4c-1.9-5-6.1-8.7-11.3-10-5-1.3-10.4.8-14.2 4.6l-35.4 39.6c-4.2-.4-8.3-.8-12.9-1.3L532.8 7.5c-2.7-4.6-7.6-7.4-12.9-7.5-5.4 0-10 2.9-12.9 7.5l-27.1 45.8c-4.2.4-8.8.8-12.9 1.3L431.6 15c-3.5-4.1-9-5.9-14.2-4.6-5.2 1.3-9.4 5-11.3 10l-17.9 50.4-12.5 3.8L334 43.3c-4.2-3.2-9.8-3.9-14.6-1.7-5 2.1-8.4 6.7-9.2 12.1l-8.3 53.3-11.3 6.3-47.1-22.5c-4.8-2.1-10.3-1.6-14.6 1.3-4.4 3.1-6.9 8.3-6.7 13.8l1.7 53.8c-3.3 2.9-6.7 5.8-10 8.3l-50.4-12.5c-5.1-1.2-10.5.4-14.2 4.2-3.8 3.8-5.3 9.3-4.2 14.6l11.7 52.5c-2.9 3.3-5.4 6.7-8.3 10.4L97 235c-5.3-.1-10.2 2.6-12.9 7.1-2.9 4.6-3.4 10.4-1.3 15.4l21.3 49.2c-2.1 3.8-4.2 7.9-6.3 12.1L47 327.5c-5.3 1-9.6 4.6-11.7 9.6-2 5.1-1.3 10.9 1.7 15.4l30 43.8c-.4.8-.4 1.7-.8 2.5l-16.7 17.5 45.8 62.9s427.1 197.1 823.8 3.3c45-8.3 55.4-77.1 55.4-77.1z"/>
    <path class="st2" d="M109.1 490c10.8-12.1 37.1-27.1 35-45.4-3.8-32.9-30.8-57.1-60.8-53.8-7.3.8-14.2 3.2-20.4 7.1-.5.1-.9-.1-1.3-.4 0 0-101.7 50-43.8 150 .4 5 115.8 152.9 147.9 164.2 20.9 7.1-19.9-126.7-56.6-221.7zM935.8 485.4c-12.5-10.4-45.4-20-46.3-38.3-1.3-32.9 22.1-60.8 52.5-62.1 7.5-.4 14.6 1.3 21.3 3.8.4 0 .8-.4 1.3-.4 0 0 107.9 34.2 65.4 141.7 0 5-91.7 168.3-122.1 184.2-19.6 10.3 5.8-129.3 27.9-228.9zM187.4 486.2s-1.3 135 130.8 165l27.5-55.4s-95.8 9.2-102.9-109.6h-55.4zM859.9 486.2s1.2 135-130.8 165l-27.5-55.4s95.8 9.2 102.9-109.6h55.4z"/>
    <path class="st2" d="M764.5 623.8c-20-47.9-84.2-67.1-143.3-42.5-52.1 21.7-82.9 69.6-76.3 113.8 41.3-.8 85.4-3.3 128.3-9.6 0 0-25.4 40.8-62.5 76.7 25 6.7 54.6 4.6 82.5-7.1 59.2-24.3 91.3-83 71.3-131.3zM525.3 692.1c6.7-46.7-28.8-95.8-85.4-115-62.1-21.3-126.7 2.9-143.8 53.3s19.6 108.8 81.7 129.6c27.5 9.2 55.8 10 79.6 3.3-27.1-26.7-47.9-58.3-56.3-72.5-2.4-5 50.1-.4 124.2 1.3z"/>
    <path class="st0" d="M530.8 530s-135 0-196.7-35.8c-8.3-5-27.5-16.3-34.2-37.9-1.6-5.6-2.3-11.3-2.1-17.1v-34.6c.1-40.9 33.2-74.1 74.2-74.2h310.4c40.9.1 74.1 33.2 74.2 74.2v34.6c.2 5.8-.5 11.5-2.1 17.1-6.7 23.3-29.2 35.8-38.3 40.8-59.6 32.5-185.4 32.9-185.4 32.9z"/>
    <path class="st0" d="M370.8 440c25.7-25.8 67.4-25.9 93.2-.2l.2.2"/>
    <path class="st3" d="M457 447.1l-.2-.2c-10.5-10.5-24.5-16.3-39.4-16.3h-.1c-14.9 0-28.9 5.9-39.5 16.4l-14.2-14.1c14.3-14.4 33.3-22.3 53.6-22.3h.1c20.2 0 39.2 7.9 53.5 22.1l.2.2-14 14.2z"/>
    <g>
        <path class="st0" d="M591.6 440c25.7-25.8 67.4-25.9 93.2-.2l.2.2"/>
        <path class="st3" d="M598.7 447.1L584.5 433c14.3-14.4 33.3-22.3 53.6-22.3h.1c20.2 0 39.2 7.9 53.6 22.1l.2.2-14.3 14-.1-.1c-10.5-10.5-24.5-16.3-39.4-16.3h-.1c-14.9 0-28.9 5.9-39.4 16.5z"/>
    </g>
</svg>
